# 3ds Max Wavefront OBJ Exporter v0.97b - (c)2007 guruware
# File Created: 30.11.2015 16:08:10

mtllib 3d-model.mtl

#
# object notice_board_001
#

v  -30.5118 0.0000 9.8425
v  -30.5118 1.9685 9.8425
v  -30.5118 1.9685 1.7343
v  -30.5118 0.0000 -9.8425
v  -30.5118 1.9685 -0.9843
v  -30.5118 1.9685 -9.8425
v  -28.5433 1.9685 9.8425
v  -28.5433 1.9685 1.7343
v  -28.5433 0.0000 9.8425
v  -28.5433 0.0000 -9.8425
v  -28.5433 1.9685 -9.8425
v  -28.5433 1.9685 -0.0000
v  -28.5433 1.9685 -0.9843
v  -30.5118 59.0551 1.7343
v  -30.5118 59.0551 -0.9843
v  -28.5433 19.6850 -0.9843
v  -28.5433 21.6535 -0.9843
v  -28.5433 57.0866 -0.9843
v  -28.5433 59.0551 -0.9843
v  28.5433 59.0551 -0.9843
v  28.5433 57.0866 -0.9843
v  -28.5433 19.6850 1.7343
v  28.5433 0.0000 9.8425
v  30.5118 0.0000 9.8425
v  30.5118 1.9685 9.8425
v  28.5433 1.9685 9.8425
v  28.5433 1.9685 1.9843
v  30.5118 1.9685 1.9843
v  30.5118 0.0000 -9.8425
v  30.5118 1.9685 -0.9843
v  30.5118 1.9685 -9.8425
v  28.5433 19.6850 -0.9843
v  28.5433 21.6535 -0.9843
v  -28.5433 21.6535 -0.7874
v  28.5433 21.6535 -0.7874
v  -28.5433 57.0866 -0.7874
v  -28.5433 57.0866 1.7343
v  -28.5433 21.6535 1.7343
v  -28.5433 21.6535 0.7874
v  -28.5433 57.0866 0.7874
v  28.5433 21.6535 1.7343
v  28.5433 21.6535 0.7874
v  -28.5433 59.0551 1.7343
v  28.5433 19.6850 1.7343
v  28.5433 21.6535 1.9843
v  28.5433 19.6850 1.9843
v  28.5433 1.9685 -9.8425
v  28.5433 1.9685 -0.9843
v  28.5433 59.0551 1.7343
v  28.5433 59.0551 1.9843
v  30.5118 59.0551 1.9843
v  30.5118 59.0551 -0.9843
v  28.5433 57.0866 1.9843
v  28.5433 57.0866 0.7874
v  28.5433 57.0866 -0.7874
v  28.5433 0.0000 -9.8425
v  28.5433 57.0866 1.7343
# 57 vertices

vn -1.0000 0.0000 -0.0000
vn 0.0000 1.0000 -0.0000
vn 0.0000 0.0000 1.0000
vn 0.0000 0.0000 -1.0000
vn 1.0000 0.0000 -0.0000
vn 0.0000 -1.0000 -0.0000
# 6 vertex normals

vt 0.0000 0.0000 0.0000
vt 0.0000 0.0328 0.0000
vt -0.1351 0.0328 0.0000
vt -0.3281 0.0000 0.0000
vt -0.1804 0.0328 0.0000
vt -0.3281 0.0328 0.0000
vt 0.0000 0.1351 0.0000
vt 0.0328 0.0000 0.0000
vt 0.0328 0.1351 0.0000
vt 0.0328 0.0328 0.0000
vt -0.0328 0.0000 0.0000
vt -0.0328 0.0328 0.0000
vt 0.3281 0.0000 0.0000
vt 0.1351 0.0328 0.0000
vt 0.1640 0.0328 0.0000
vt 0.1804 0.0328 0.0000
vt 0.3281 0.0328 0.0000
vt 0.0000 0.3281 0.0000
vt 0.0000 0.1804 0.0000
vt 0.0328 0.1804 0.0000
vt 0.0328 0.3281 0.0000
vt -0.1351 0.9843 0.0000
vt -0.1804 0.9843 0.0000
vt 0.0000 0.9843 0.0000
vt -0.0328 0.3281 0.0000
vt -0.0328 0.3609 0.0000
vt -0.0328 0.9514 0.0000
vt -0.0328 0.9843 0.0000
vt -0.9843 0.9843 0.0000
vt -0.9843 0.9514 0.0000
vt 0.1351 0.3281 0.0000
vt 0.1804 0.3281 0.0000
vt 0.9843 0.0000 0.0000
vt 1.0171 0.0000 0.0000
vt 1.0171 0.0328 0.0000
vt 0.9843 0.0328 0.0000
vt 0.9843 0.1310 0.0000
vt 1.0171 0.1310 0.0000
vt 0.1310 0.0328 0.0000
vt -0.9843 0.3281 0.0000
vt -0.9843 0.3609 0.0000
vt 0.0328 0.1772 0.0000
vt 0.9843 0.1772 0.0000
vt 0.9843 0.1804 0.0000
vt 0.1772 0.9514 0.0000
vt 0.1772 0.3609 0.0000
vt 0.1804 0.3609 0.0000
vt 0.1804 0.9514 0.0000
vt 0.1351 0.9514 0.0000
vt 0.1351 0.3609 0.0000
vt 0.1509 0.3609 0.0000
vt 0.1509 0.9514 0.0000
vt 0.0328 0.1509 0.0000
vt 0.9843 0.1351 0.0000
vt 0.9843 0.1509 0.0000
vt 0.0328 0.3609 0.0000
vt 0.0328 0.9514 0.0000
vt 0.0328 0.9843 0.0000
vt 0.9843 0.3281 0.0000
vt 0.9843 0.3609 0.0000
vt 0.1310 0.3609 0.0000
vt 0.1310 0.3281 0.0000
vt 1.0171 0.1804 0.0000
vt 1.0171 0.3281 0.0000
vt -4.9213 1.8045 0.0000
vt -0.1640 1.8045 0.0000
vt -0.1640 4.7572 0.0000
vt -4.9213 4.7572 0.0000
# 68 texture coords

g notice_board_001
usemtl Wood__Floor
s off
f 1/1/1 2/2/1 3/3/1 4/4/1 
f 4/4/1 3/3/1 5/5/1 6/6/1 
f 3/7/2 2/1/2 7/8/2 8/9/2 
f 1/1/3 9/8/3 7/10/3 2/2/3 
f 10/11/4 4/1/4 6/2/4 11/12/4 
f 7/2/5 9/1/5 10/13/5 8/14/5 
f 12/15/5 8/14/5 10/13/5 13/16/5 
f 13/16/5 10/13/5 11/17/5 
f 6/18/2 5/19/2 13/20/2 11/21/2 
f 3/3/1 14/22/1 15/23/1 5/5/1 
f 13/12/4 5/2/4 15/24/4 16/25/4 
f 17/26/4 16/25/4 15/24/4 18/27/4 
f 18/27/4 15/24/4 19/28/4 
f 20/29/4 21/30/4 18/27/4 19/28/4 
f 22/31/5 8/14/5 12/15/5 16/32/5 
f 16/32/5 12/15/5 13/16/5 
f 23/33/3 24/34/3 25/35/3 26/36/3 
f 27/37/2 26/33/2 25/34/2 28/38/2 
f 25/2/5 24/1/5 29/13/5 28/39/5 
f 30/16/5 28/39/5 29/13/5 31/17/5 
f 32/40/4 16/25/4 17/26/4 33/41/4 
f 17/20/2 34/42/2 35/43/2 33/44/2 
f 36/45/5 34/46/5 17/47/5 18/48/5 
f 37/49/5 38/50/5 39/51/5 40/52/5 
f 39/53/2 38/9/2 41/54/2 42/55/2 
f 3/2/3 8/10/3 22/21/3 14/24/3 
f 14/24/3 22/21/3 38/56/3 37/57/3 
f 14/24/3 37/57/3 43/58/3 
f 22/21/3 44/59/3 41/60/3 38/56/3 
f 45/61/5 46/62/5 44/31/5 41/50/5 
f 47/59/2 48/44/2 30/63/2 31/64/2 
usemtl Color_008
f 1/1/6 4/1/6 10/1/6 9/1/6 
f 43/1/5 37/1/5 40/1/5 19/1/5 
f 19/1/5 40/1/5 36/1/5 18/1/5 
f 43/1/6 19/1/6 20/1/6 49/1/6 
f 50/1/6 49/1/6 20/1/6 51/1/6 
f 51/1/6 20/1/6 52/1/6 
f 28/1/1 51/1/1 52/1/1 30/1/1 
f 28/1/4 27/1/4 46/1/4 51/1/4 
f 51/1/4 46/1/4 45/1/4 53/1/4 
f 51/1/4 53/1/4 50/1/4 
f 48/1/2 27/1/2 28/1/2 30/1/2 
f 48/1/3 30/1/3 52/1/3 32/1/3 
f 33/1/3 32/1/3 52/1/3 21/1/3 
f 21/1/3 52/1/3 20/1/3 
f 5/1/2 3/1/2 8/1/2 13/1/2 
f 13/1/2 8/1/2 12/1/2 
f 14/1/6 15/1/6 19/1/6 43/1/6 
f 46/1/5 27/1/5 48/1/5 44/1/5 
f 44/1/5 48/1/5 32/1/5 
f 36/1/2 40/1/2 54/1/2 55/1/2 
f 56/1/3 29/1/3 31/1/3 47/1/3 
f 26/1/5 23/1/5 56/1/5 27/1/5 
f 48/1/5 27/1/5 56/1/5 47/1/5 
f 23/1/6 56/1/6 29/1/6 24/1/6 
f 41/1/5 44/1/5 32/1/5 42/1/5 
f 35/1/5 42/1/5 32/1/5 33/1/5 
f 54/1/5 42/1/5 35/1/5 55/1/5 
f 38/1/5 22/1/5 16/1/5 39/1/5 
f 34/1/5 39/1/5 16/1/5 17/1/5 
f 40/1/5 39/1/5 34/1/5 36/1/5 
f 22/1/6 16/1/6 32/1/6 44/1/6 
f 55/1/5 35/1/5 33/1/5 21/1/5 
f 18/1/2 36/1/2 55/1/2 21/1/2 
f 53/1/5 45/1/5 41/1/5 57/1/5 
f 57/1/5 41/1/5 42/1/5 54/1/5 
f 40/1/2 37/1/2 57/1/2 54/1/2 
f 57/1/4 37/1/4 43/1/4 49/1/4 
f 50/1/5 53/1/5 57/1/5 49/1/5 
usemtl Carpet_Plush_Charcoal
f 35/65/4 34/66/4 36/67/4 55/68/4 
usemtl Material1
f 39/1/3 42/1/3 54/1/3 40/1/3 
# 62 polygons - 9 triangles

#
# object Layer0_001
#

v  -28.5433 0.0000 1.7343
v  -28.5433 1.9685 1.7343
v  -28.5433 1.9685 -1.4509
v  -28.5433 0.0000 -1.4509
v  30.1368 1.9685 1.7343
v  30.1368 0.0000 1.7343
v  30.1368 0.0000 -1.4509
v  30.1368 1.9685 -1.4509
# 8 vertices

vn -1.0000 0.0000 -0.0000
vn 1.0000 0.0000 -0.0000
vn 0.0000 -1.0000 -0.0000
vn 0.0000 0.0000 1.0000
vn 0.0000 1.0000 -0.0000
vn 0.0000 0.0000 -1.0000
# 6 vertex normals

vt 0.0000 0.0000 0.0000
vt 0.0328 0.0000 0.0000
vt 1.0108 0.0000 0.0000
vt 1.0108 0.0328 0.0000
vt 0.0328 0.0328 0.0000
vt 0.0328 0.1882 0.0000
vt 0.0328 0.1351 0.0000
vt 1.0108 0.1351 0.0000
vt 1.0108 0.1882 0.0000
vt -1.0108 0.0000 0.0000
vt -0.0328 0.0000 0.0000
vt -0.0328 0.0328 0.0000
vt -1.0108 0.0328 0.0000
# 13 texture coords

g Layer0_001
usemtl skp_front_default
s off
f 58/69/7 59/69/7 60/69/7 61/69/7 
f 62/69/8 63/69/8 64/69/8 65/69/8 
f 58/69/9 61/69/9 64/69/9 63/69/9 
usemtl Wood__Floor
f 58/70/10 63/71/10 62/72/10 59/73/10 
f 60/74/11 59/75/11 62/76/11 65/77/11 
f 64/78/12 61/79/12 60/80/12 65/81/12 
# 6 polygons

